#!OML:ASF F:\VICON\USERDATA\INSTALL\rory3\rory3.ASF
:FULLY-SPECIFIED
:DEGREES
3541
root 0.789365 17.6058 -5.08255 -193.837 254.528 -159.916
lowerback 6.5879 2.72789 0.728133
upperback 0.872092 3.75675 5.4751
thorax -3.11625 1.852 4.93067
lowerneck -23.8591 4.87649 -3.54901
upperneck 24.7546 4.81556 11.0111
head 11.6604 3.2791 5.53307
rclavicle 3.81667e-014 5.725e-014
rhumerus -37.4953 -0.68699 -63.7267
rradius 59.989
rwrist 14.6764
rhand -19.5102 5.46286
rfingers 7.12502
rthumb 6.81264 -24.4075
lclavicle 3.81667e-014 5.725e-014
lhumerus 9.28713 66.5146 43.9395
lradius 44.5495
lwrist 75.4653
lhand -16.9554 28.3001
lfingers 7.12502
lthumb 9.27839 1138.08
rfemur -19.2138 7.26038 9.74965
rtibia 39.5578
rfoot -23.1192 5.44476
rtoes -3.55191
lfemur -13.0387 -2.40435 -14.5341
ltibia 19.4512
lfoot -6.31276 6.51152
ltoes -31.303
3542
root 0.790339 17.6098 -5.06744 -195.421 255.207 -158.383
lowerback 6.57235 2.77857 0.526364
upperback 0.928436 3.8065 5.44216
thorax -3.06418 1.87875 5.00699
lowerneck -23.5673 4.58002 -3.41103
upperneck 24.169 4.54182 10.4691
head 11.4277 3.09525 5.21307
rclavicle 9.85972e-014 9.22361e-014
rhumerus -37.4518 -0.488365 -63.9343
rradius 60.3667
rwrist 14.4075
rhand -18.9387 4.81253
rfingers 7.12502
rthumb 7.36428 -25.0393
lclavicle 9.85972e-014 9.22361e-014
lhumerus 13.707 66.4238 45.8166
lradius 45.1233
lwrist 74.9605
lhand -16.7492 28.063
lfingers 7.12502
lthumb 9.47738 1137.83
rfemur -19.2734 6.97545 9.48345
rtibia 39.602
rfoot -23.6223 4.05341
rtoes -5.00972
lfemur -12.6155 -2.30982 -14.8104
ltibia 19.2247
lfoot -6.22985 7.18811
ltoes -31.4372
3543
root 0.797447 17.614 -5.05075 -197.51 255.87 -156.294
lowerback 6.52711 2.86194 0.296988
upperback 0.989972 3.89702 5.36976
thorax -2.99301 1.92611 5.05472
lowerneck -23.7932 4.53904 -3.20993
upperneck 24.4322 4.39246 10.4522
head 11.5928 3.04465 5.1787
rclavicle 6.36111e-015 4.13472e-014
rhumerus -37.3947 -0.65219 -64.0854
rradius 60.6653
rwrist 14.4654
rhand -18.7077 4.7383
rfingers 7.12502
rthumb 7.58732 -25.1056
lclavicle 6.36111e-015 4.13472e-014
lhumerus 17.8835 65.8914 47.3878
lradius 45.5942
lwrist 74.2351
lhand -16.3956 27.5014
lfingers 7.12502
lthumb 9.81846 1137.25
rfemur -19.427 6.52179 9.08266
rtibia 39.6476
rfoot -24.0584 2.66555
rtoes -5.93448
lfemur -12.2463 -2.27259 -15.2013
ltibia 18.9978
lfoot -6.09238 7.91097
ltoes -31.8337
3544
root 0.809854 17.62 -5.03178 -199.084 256.48 -154.729
lowerback 6.60373 2.8676 0.288932
upperback 0.985422 3.90559 5.34723
thorax -3.04028 1.93044 5.03121
lowerneck -23.8755 4.51386 -3.18904
upperneck 24.5989 4.28198 10.6215
head 11.6792 3.01808 5.23731
rclavicle -5.56597e-015 1.59028e-014
rhumerus -37.3674 -0.84895 -64.1631
rradius 60.9939
rwrist 14.7478
rhand -19.1361 5.01865
rfingers 7.12502
rthumb 7.17375 -24.8398
lclavicle -5.56597e-015 1.59028e-014
lhumerus 22.0085 65.3403 49.0502
lradius 46.004
lwrist 72.8001
lhand -15.613 26.6977
lfingers 7.12502
lthumb 10.5735 1136.41
rfemur -19.5766 5.90158 8.81919
rtibia 39.6785
rfoot -24.3945 1.44691
rtoes -5.49401
lfemur -11.9695 -2.34547 -15.4289
ltibia 18.8335
lfoot -5.96094 8.67319
ltoes -31.811
3545
root 0.823497 17.6246 -5.01322 -200.334 257.052 -153.615
lowerback 6.8963 2.84513 0.338235
upperback 0.965431 3.88832 5.40692
thorax -3.22427 1.92143 5.05504
lowerneck -23.9715 4.48848 -3.24393
upperneck 24.7938 4.18838 10.8237
head 11.7746 2.99673 5.32639
rclavicle -2.42517e-014 -7.31528e-014
rhumerus -37.3816 -1.01956 -64.1929
rradius 61.3538
rwrist 14.8288
rhand -19.003 4.73373
rfingers 7.12502
rthumb 7.30221 -25.1203
lclavicle -2.42517e-014 -7.31528e-014
lhumerus 26.1767 64.7636 51.0079
lradius 46.4601
lwrist 70.8852
lhand -14.6823 26.0567
lfingers 7.12502
lthumb 11.4712 1135.72
rfemur -19.5705 5.19149 8.72
rtibia 39.6801
rfoot -24.7562 0.26262
rtoes -4.91556
lfemur -11.6631 -2.29785 -15.5371
ltibia 18.7881
lfoot -5.94299 9.23528
ltoes -31.8743
3546
root 0.834657 17.6277 -4.99972 -201.16 257.572 -152.902
lowerback 7.1224 2.80179 0.386508
upperback 0.929215 3.84319 5.56815
thorax -3.39294 1.89843 5.19302
lowerneck -23.8536 4.43713 -3.51798
upperneck 24.7448 4.16402 11.0162
head 11.7208 2.98315 5.43266
rclavicle -1.66979e-014 -3.18055e-015
rhumerus -37.3537 -1.08111 -64.0437
rradius 61.6389
rwrist 14.8592
rhand -19.9973 4.50388
rfingers 7.12502
rthumb 6.34244 -25.3812
lclavicle -1.66979e-014 -3.18055e-015
lhumerus 29.0438 63.8981 52.1825
lradius 47.4288
lwrist 69.2251
lhand -14.3259 25.7051
lfingers 7.12502
lthumb 11.8149 1135.35
rfemur -19.5639 4.38387 8.73761
rtibia 39.648
rfoot -25.1322 -0.676378
rtoes -2.8535
lfemur -11.4721 -2.15848 -15.5385
ltibia 18.8412
lfoot -5.95648 9.60505
ltoes -32.1254
3547
root 0.844682 17.6292 -4.99322 -201.968 258.114 -152.168
lowerback 7.29387 2.79237 0.469404
upperback 0.876614 3.84545 5.70468
thorax -3.54831 1.89874 5.28266
lowerneck -23.5674 4.3526 -3.85566
upperneck 24.478 4.10538 11.2898
head 11.5507 2.95705 5.55281
rclavicle -2.42517e-014 1.90833e-014
rhumerus -37.3867 -1.3109 -63.9127
rradius 61.835
rwrist 15.2235
rhand -21.1967 4.41958
rfingers 7.12502
rthumb 5.1844 -25.497
lclavicle -2.42517e-014 1.90833e-014
lhumerus 30.9407 62.7316 52.5759
lradius 48.7322
lwrist 67.8737
lhand -14.5067 25.2275
lfingers 7.12502
lthumb 11.6405 1134.88
rfemur -19.6295 3.62125 8.80129
rtibia 39.6106
rfoot -25.4174 -1.51271
rtoes 0.057103
lfemur -11.3467 -2.05181 -15.4931
ltibia 18.957
lfoot -5.9413 10.0704
ltoes -32.3413
3548
root 0.859441 17.6307 -4.98495 -203.41 258.664 -150.691
lowerback 7.37446 2.76968 0.475121
upperback 0.840661 3.82013 5.78411
thorax -3.63398 1.88631 5.36291
lowerneck -23.3836 4.31823 -4.03756
upperneck 24.2881 4.09859 11.4127
head 11.4345 2.95043 5.60723
rclavicle -7.83212e-014 -6.36111e-015
rhumerus -37.3187 -1.50043 -63.9234
rradius 62.01
rwrist 15.5705
rhand -21.5197 4.17657
rfingers 7.12502
rthumb 4.87253 -25.7474
lclavicle -7.83212e-014 -6.36111e-015
lhumerus 33.2226 61.6335 53.0716
lradius 49.7377
lwrist 66.2129
lhand -14.5183 24.9796
lfingers 7.12502
lthumb 11.6293 1134.64
rfemur -19.8808 2.82809 8.75466
rtibia 39.5944
rfoot -25.4275 -2.62853
rtoes -0.0278703
lfemur -11.3091 -2.1668 -15.5529
ltibia 19.0332
lfoot -6.04073 10.8562
ltoes -31.1052
3549
root 0.872088 17.6333 -4.97001 -205.33 259.173 -148.572
lowerback 7.23105 2.70353 0.38964
upperback 0.792139 3.72324 5.86769
thorax -3.60662 1.83982 5.51622
lowerneck -23.2812 4.36295 -4.06357
upperneck 24.2381 4.23013 11.2233
head 11.3858 2.98167 5.55036
rclavicle 4.65156e-014 -3.18055e-015
rhumerus -37.2436 -1.48235 -63.9041
rradius 62.22
rwrist 15.7269
rhand -21.944 4.08344
rfingers 7.12502
rthumb 4.46288 -25.8495
lclavicle 4.65156e-014 -3.18055e-015
lhumerus 35.8635 60.6646 53.9611
lradius 50.4412
lwrist 64.2041
lhand -14.1035 24.7865
lfingers 7.12502
lthumb 12.0293 1134.42
rfemur -20.2922 1.9603 8.55221
rtibia 39.6018
rfoot -25.2766 -3.43616
rtoes -0.580586
lfemur -11.3718 -2.23208 -15.7394
ltibia 18.9816
lfoot -6.24597 11.687
ltoes -28.8094
3550
root 0.875998 17.6381 -4.95904 -207.849 259.533 -145.965
lowerback 7.08472 2.59946 0.165655
upperback 0.787262 3.56337 5.94039
thorax -3.53315 1.76357 5.74453
lowerneck -23.2829 4.43977 -4.07081
upperneck 24.3461 4.39007 11.0347
head 11.4151 3.02838 5.51017
rclavicle 1.11319e-014 1.59028e-014
rhumerus -37.1333 -1.55284 -63.8106
rradius 62.3694
rwrist 16.0965
rhand -21.7874 4.27709
rfingers 7.12502
rthumb 4.6141 -25.6527
lclavicle 1.11319e-014 1.59028e-014
lhumerus 38.2367 59.6218 54.7771
lradius 51.2
lwrist 62.2452
lhand -13.4699 24.4662
lfingers 7.12502
lthumb 12.6402 1134.06
rfemur -20.5018 1.21554 8.22236
rtibia 39.6273
rfoot -25.1325 -3.90406
rtoes 0.382664
lfemur -11.206 -2.41924 -16.0476
ltibia 18.7792
lfoot -6.09373 12.388
ltoes -28.5099
3551
root 0.876376 17.6488 -4.95722 -209.163 259.838 -144.751
lowerback 7.04526 2.51066 0.196481
upperback 0.825065 3.44224 6.03115
thorax -3.46339 1.70039 5.83897
lowerneck -23.338 4.45348 -4.16738
upperneck 24.4601 4.43077 11.0601
head 11.4606 3.04095 5.55166
rclavicle 1.82882e-014 -9.54166e-015
rhumerus -37.1359 -1.77604 -63.7237
rradius 62.5348
rwrist 16.4114
rhand -21.6061 4.09808
rfingers 7.12502
rthumb 4.78909 -25.8278
lclavicle 1.82882e-014 -9.54166e-015
lhumerus 40.6604 58.2154 55.6772
lradius 51.9754
lwrist 60.011
lhand -13.1502 24.0363
lfingers 7.12502
lthumb 12.9484 1133.61
rfemur -20.4474 0.780814 8.14319
rtibia 39.634
rfoot -25.0432 -4.44376
rtoes 2.31888
lfemur -10.8503 -2.54455 -16.0929
ltibia 18.5061
lfoot -5.58563 12.6874
ltoes -30.4482
3552
root 0.877046 17.6625 -4.95947 -210.337 260.108 -143.676
lowerback 6.97802 2.45235 0.27513
upperback 0.876334 3.36293 6.10176
thorax -3.36399 1.65671 5.8809
lowerneck -23.3803 4.46838 -4.24523
upperneck 24.5412 4.46585 11.094
head 11.4922 3.05387 5.58976
rclavicle -1.94809e-014 -1.27222e-014
rhumerus -37.1864 -2.17522 -63.6938
rradius 62.6755
rwrist 16.5762
rhand -21.58 3.76148
rfingers 7.12502
rthumb 4.81429 -26.1638
lclavicle -1.94809e-014 -1.27222e-014
lhumerus 43.2249 56.6128 56.8614
lradius 52.8272
lwrist 57.638
lhand -13.0377 23.6658
lfingers 7.12502
lthumb 13.0568 1133.24
rfemur -20.3674 0.536539 8.05816
rtibia 39.6252
rfoot -24.9146 -4.88866
rtoes 4.74242
lfemur -10.5134 -2.33935 -16.1358
ltibia 18.186
lfoot -5.18134 12.7249
ltoes -31.8619
3553
root 0.876783 17.6683 -4.96228 -212.089 260.416 -142.009
lowerback 6.95106 2.34469 0.236749
upperback 0.901936 3.21268 6.20367
thorax -3.31512 1.5804 6.02909
lowerneck -23.4139 4.57166 -4.24307
upperneck 24.8151 4.63331 10.9579
head 11.5893 3.10981 5.58156
rclavicle 1.07344e-014 3.18055e-014
rhumerus -37.1624 -2.37015 -63.7061
rradius 62.7605
rwrist 16.8077
rhand -21.1609 3.65721
rfingers 7.12502
rthumb 5.21899 -26.2585
lclavicle 1.07344e-014 3.18055e-014
lhumerus 45.5683 55.1647 58.0181
lradius 53.6832
lwrist 55.1983
lhand -12.7471 23.2657
lfingers 7.12502
lthumb 13.337 1132.82
rfemur -20.328 0.088217 7.95976
rtibia 39.5946
rfoot -24.479 -5.3596
rtoes 6.07291
lfemur -10.1872 -2.00908 -16.2318
ltibia 17.9179
lfoot -5.01749 12.784
ltoes -32.2751
3554
root 0.87617 17.6677 -4.96545 -214.201 260.698 -139.973
lowerback 7.06042 2.21266 0.0667311
upperback 0.801478 3.0346 6.34373
thorax -3.47956 1.49718 6.29201
lowerneck -23.2424 4.70807 -4.16794
upperneck 25.1128 4.85483 10.6856
head 11.6576 3.17478 5.50877
rclavicle -3.1408e-014 -2.8625e-014
rhumerus -37.2476 -2.24922 -63.685
rradius 62.8006
rwrist 16.8887
rhand -21.0464 3.47679
rfingers 7.12502
rthumb 5.32956 -26.4362
lclavicle -3.1408e-014 -2.8625e-014
lhumerus 47.3264 53.6899 58.754
lradius 54.4725
lwrist 53.0945
lhand -11.9469 22.26
lfingers 7.12502
lthumb 14.1082 1131.76
rfemur -20.3372 -0.571517 7.85261
rtibia 39.565
rfoot -23.5935 -6.05062
rtoes 5.30082
lfemur -9.87809 -1.85176 -16.3467
ltibia 17.7161
lfoot -4.99138 13.0137
ltoes -32.0696
3555
root 0.876845 17.6651 -4.97231 -216.947 261.111 -137.309
lowerback 7.15741 2.17277 -0.100425
upperback 0.760498 2.97473 6.47683
thorax -3.58653 1.47145 6.5353
lowerneck -23.0701 4.78877 -4.16567
upperneck 25.15 5.00812 10.5309
head 11.6276 3.22069 5.46546
rclavicle -2.54444e-014 -2.54444e-014
rhumerus -37.3052 -2.25091 -63.6688
rradius 62.7918
rwrist 16.8485
rhand -21.5099 3.2701
rfingers 7.12502
rthumb 4.88203 -26.6537
lclavicle -2.54444e-014 -2.54444e-014
lhumerus 49.314 52.1037 59.7846
lradius 55.1597
lwrist 51.0795
lhand -10.6161 20.8051
lfingers 7.12502
lthumb 15.3903 1130.21
rfemur -20.4054 -0.999026 7.76736
rtibia 39.5198
rfoot -22.4681 -6.69986
rtoes 4.50318
lfemur -9.55228 -1.92766 -16.4092
ltibia 17.6026
lfoot -5.02109 13.6347
ltoes -31.6332
